<mxfile host="app.diagrams.net" modified="2023-04-17T12:07:17.193Z" agent="Mozilla/5.0 (Windows NT 10.0; Win64; x64; rv:109.0) Gecko/20100101 Firefox/112.0" etag="6QVH-PoWxJW8da-NAXlu" version="21.1.8" type="github">
  <diagram name="Page-1" id="-WmRzo-UNHprRH1_R65h">
    <mxGraphModel dx="1434" dy="754" grid="1" gridSize="10" guides="1" tooltips="1" connect="1" arrows="1" fold="1" page="1" pageScale="1" pageWidth="1169" pageHeight="827" math="0" shadow="0">
      <root>
        <mxCell id="0" />
        <mxCell id="1" parent="0" />
        <mxCell id="8fceIVDhUmT7ji_Avb1O-1" value="" style="rounded=0;whiteSpace=wrap;html=1;fillColor=#f5f5f5;fontColor=#333333;strokeColor=#666666;" parent="1" vertex="1">
          <mxGeometry x="10" width="1150" height="90" as="geometry" />
        </mxCell>
        <mxCell id="8fceIVDhUmT7ji_Avb1O-2" value="Filtrer affichages" style="shape=partialRectangle;whiteSpace=wrap;html=1;bottom=0;top=0;fillColor=none;" parent="1" vertex="1">
          <mxGeometry x="250" y="20" width="130" height="50" as="geometry" />
        </mxCell>
        <mxCell id="8fceIVDhUmT7ji_Avb1O-3" value="Formulaires" style="shape=partialRectangle;whiteSpace=wrap;html=1;bottom=0;top=0;fillColor=none;" parent="1" vertex="1">
          <mxGeometry x="380" y="20" width="130" height="50" as="geometry" />
        </mxCell>
        <mxCell id="8fceIVDhUmT7ji_Avb1O-4" value="Modifications" style="shape=partialRectangle;whiteSpace=wrap;html=1;bottom=0;top=0;fillColor=none;" parent="1" vertex="1">
          <mxGeometry x="510" y="20" width="130" height="50" as="geometry" />
        </mxCell>
        <mxCell id="8fceIVDhUmT7ji_Avb1O-5" value="&lt;p style=&quot;line-height: 120%;&quot;&gt;Accueil&lt;/p&gt;" style="shape=partialRectangle;whiteSpace=wrap;html=1;bottom=0;top=0;fillColor=none;" parent="1" vertex="1">
          <mxGeometry x="115" y="20" width="135" height="50" as="geometry" />
        </mxCell>
        <mxCell id="8fceIVDhUmT7ji_Avb1O-6" value="" style="triangle;whiteSpace=wrap;html=1;rotation=90;" parent="1" vertex="1">
          <mxGeometry x="360" y="50" width="10" height="20" as="geometry" />
        </mxCell>
        <mxCell id="8fceIVDhUmT7ji_Avb1O-7" value="" style="triangle;whiteSpace=wrap;html=1;rotation=90;" parent="1" vertex="1">
          <mxGeometry x="490" y="50" width="10" height="20" as="geometry" />
        </mxCell>
        <mxCell id="8fceIVDhUmT7ji_Avb1O-8" value="FOOTER" style="rounded=0;whiteSpace=wrap;html=1;resizeWidth=0;" parent="1" vertex="1">
          <mxGeometry x="10" y="767" width="1150" height="60" as="geometry" />
        </mxCell>
        <mxCell id="8fceIVDhUmT7ji_Avb1O-9" value="" style="rounded=1;whiteSpace=wrap;html=1;" parent="1" vertex="1">
          <mxGeometry x="345" y="203" width="480" height="211" as="geometry" />
        </mxCell>
        <mxCell id="8fceIVDhUmT7ji_Avb1O-11" value="&lt;b&gt;Formulaire rôle&lt;br&gt;&lt;/b&gt;" style="text;html=1;strokeColor=none;fillColor=none;align=center;verticalAlign=middle;whiteSpace=wrap;rounded=0;" parent="1" vertex="1">
          <mxGeometry x="471.75" y="224" width="226.5" height="30" as="geometry" />
        </mxCell>
        <mxCell id="8fceIVDhUmT7ji_Avb1O-15" value="Rôle :" style="text;html=1;strokeColor=none;fillColor=none;align=center;verticalAlign=middle;whiteSpace=wrap;rounded=0;" parent="1" vertex="1">
          <mxGeometry x="458" y="284" width="36.88" height="30" as="geometry" />
        </mxCell>
        <mxCell id="8fceIVDhUmT7ji_Avb1O-16" value="Valider" style="rounded=1;whiteSpace=wrap;html=1;" parent="1" vertex="1">
          <mxGeometry x="545" y="344" width="80" height="30" as="geometry" />
        </mxCell>
        <mxCell id="8fceIVDhUmT7ji_Avb1O-21" value="" style="rounded=0;whiteSpace=wrap;html=1;" parent="1" vertex="1">
          <mxGeometry x="505.76" y="284" width="204.75" height="30" as="geometry" />
        </mxCell>
      </root>
    </mxGraphModel>
  </diagram>
</mxfile>
